<?xml version="1.0" encoding="UTF-8" standalone="no"?>
<!DOCTYPE svg PUBLIC "-//W3C//DTD SVG 1.1//EN"
 "http://www.w3.org/Graphics/SVG/1.1/DTD/svg11.dtd">
<!-- Generated by graphviz version 9.0.0 (20230911.1827)
 -->
<!-- Pages: 1 -->
<svg width="1654pt" height="265pt"
 viewBox="0.00 0.00 1653.50 265.00" xmlns="http://www.w3.org/2000/svg" xmlns:xlink="http://www.w3.org/1999/xlink">
<g id="graph0" class="graph" transform="scale(1 1) rotate(0) translate(4 261)">
<polygon fill="white" stroke="none" points="-4,4 -4,-261 1649.5,-261 1649.5,4 -4,4"/>
<!-- 2297138407952 -->
<g id="node1" class="node">
<title>2297138407952</title>
<polygon fill="none" stroke="black" points="890.25,-110.5 890.25,-146.5 1057.25,-146.5 1057.25,-110.5 890.25,-110.5"/>
<text text-anchor="middle" x="930.5" y="-123.2" font-family="Times New Roman,serif" font-size="14.00">data 0.3798</text>
<polyline fill="none" stroke="black" points="970.75,-110.75 970.75,-146.5"/>
<text text-anchor="middle" x="1014" y="-123.2" font-family="Times New Roman,serif" font-size="14.00">grad &#45;1.2405</text>
</g>
<!-- 2297138413328+ -->
<g id="node15" class="node">
<title>2297138413328+</title>
<ellipse fill="none" stroke="black" cx="1122.5" cy="-155.5" rx="27" ry="18"/>
<text text-anchor="middle" x="1122.5" y="-150.07" font-family="Times New Roman,serif" font-size="14.00">+</text>
</g>
<!-- 2297138407952&#45;&gt;2297138413328+ -->
<g id="edge18" class="edge">
<title>2297138407952&#45;&gt;2297138413328+</title>
<path fill="none" stroke="black" d="M1057.56,-143.74C1067.11,-145.49 1076.43,-147.21 1084.88,-148.76"/>
<polygon fill="black" stroke="black" points="1084.22,-152.2 1094.69,-150.57 1085.49,-145.32 1084.22,-152.2"/>
</g>
<!-- 2297138407952+ -->
<g id="node2" class="node">
<title>2297138407952+</title>
<ellipse fill="none" stroke="black" cx="825" cy="-128.5" rx="27" ry="18"/>
<text text-anchor="middle" x="825" y="-123.08" font-family="Times New Roman,serif" font-size="14.00">+</text>
</g>
<!-- 2297138407952+&#45;&gt;2297138407952 -->
<g id="edge1" class="edge">
<title>2297138407952+&#45;&gt;2297138407952</title>
<path fill="none" stroke="black" d="M852.24,-128.5C860,-128.5 868.98,-128.5 878.47,-128.5"/>
<polygon fill="black" stroke="black" points="878.29,-132 888.29,-128.5 878.29,-125 878.29,-132"/>
</g>
<!-- 2297138401296 -->
<g id="node3" class="node">
<title>2297138401296</title>
<polygon fill="none" stroke="black" points="590.5,-110.5 590.5,-146.5 762,-146.5 762,-110.5 590.5,-110.5"/>
<text text-anchor="middle" x="633" y="-123.2" font-family="Times New Roman,serif" font-size="14.00">data &#45;0.7381</text>
<polyline fill="none" stroke="black" points="675.5,-110.75 675.5,-146.5"/>
<text text-anchor="middle" x="718.75" y="-123.2" font-family="Times New Roman,serif" font-size="14.00">grad &#45;1.2405</text>
</g>
<!-- 2297138401296&#45;&gt;2297138407952+ -->
<g id="edge13" class="edge">
<title>2297138401296&#45;&gt;2297138407952+</title>
<path fill="none" stroke="black" d="M762.19,-128.5C770.49,-128.5 778.59,-128.5 786.05,-128.5"/>
<polygon fill="black" stroke="black" points="786.03,-132 796.03,-128.5 786.03,-125 786.03,-132"/>
</g>
<!-- 2297138401296* -->
<g id="node4" class="node">
<title>2297138401296*</title>
<ellipse fill="none" stroke="black" cx="527.5" cy="-128.5" rx="27" ry="18"/>
<text text-anchor="middle" x="527.5" y="-123.08" font-family="Times New Roman,serif" font-size="14.00">*</text>
</g>
<!-- 2297138401296*&#45;&gt;2297138401296 -->
<g id="edge2" class="edge">
<title>2297138401296*&#45;&gt;2297138401296</title>
<path fill="none" stroke="black" d="M554.74,-128.5C561.92,-128.5 570.16,-128.5 578.87,-128.5"/>
<polygon fill="black" stroke="black" points="578.62,-132 588.62,-128.5 578.62,-125 578.62,-132"/>
</g>
<!-- 2297138413072 -->
<g id="node5" class="node">
<title>2297138413072</title>
<polygon fill="none" stroke="black" points="0,-83.5 0,-119.5 167,-119.5 167,-83.5 0,-83.5"/>
<text text-anchor="middle" x="40.25" y="-96.2" font-family="Times New Roman,serif" font-size="14.00">data 0.8880</text>
<polyline fill="none" stroke="black" points="80.5,-83.75 80.5,-119.5"/>
<text text-anchor="middle" x="123.75" y="-96.2" font-family="Times New Roman,serif" font-size="14.00">grad &#45;0.3459</text>
</g>
<!-- 2297670941904* -->
<g id="node10" class="node">
<title>2297670941904*</title>
<ellipse fill="none" stroke="black" cx="230" cy="-73.5" rx="27" ry="18"/>
<text text-anchor="middle" x="230" y="-68.08" font-family="Times New Roman,serif" font-size="14.00">*</text>
</g>
<!-- 2297138413072&#45;&gt;2297670941904* -->
<g id="edge15" class="edge">
<title>2297138413072&#45;&gt;2297670941904*</title>
<path fill="none" stroke="black" d="M167.3,-85.46C176.09,-83.75 184.67,-82.09 192.51,-80.57"/>
<polygon fill="black" stroke="black" points="193.11,-84.02 202.26,-78.68 191.78,-77.15 193.11,-84.02"/>
</g>
<!-- 2297138408016 -->
<g id="node6" class="node">
<title>2297138408016</title>
<polygon fill="none" stroke="black" points="592.75,-55.5 592.75,-91.5 759.75,-91.5 759.75,-55.5 592.75,-55.5"/>
<text text-anchor="middle" x="633" y="-68.2" font-family="Times New Roman,serif" font-size="14.00">data 0.2476</text>
<polyline fill="none" stroke="black" points="673.25,-55.75 673.25,-91.5"/>
<text text-anchor="middle" x="716.5" y="-68.2" font-family="Times New Roman,serif" font-size="14.00">grad &#45;1.2405</text>
</g>
<!-- 2297138408016&#45;&gt;2297138407952+ -->
<g id="edge11" class="edge">
<title>2297138408016&#45;&gt;2297138407952+</title>
<path fill="none" stroke="black" d="M735.4,-91.93C744.35,-94.99 753.46,-98.24 762,-101.5 771.8,-105.24 782.31,-109.66 791.85,-113.83"/>
<polygon fill="black" stroke="black" points="790.16,-116.91 800.72,-117.77 793,-110.51 790.16,-116.91"/>
</g>
<!-- 2297138408016+ -->
<g id="node7" class="node">
<title>2297138408016+</title>
<ellipse fill="none" stroke="black" cx="527.5" cy="-73.5" rx="27" ry="18"/>
<text text-anchor="middle" x="527.5" y="-68.08" font-family="Times New Roman,serif" font-size="14.00">+</text>
</g>
<!-- 2297138408016+&#45;&gt;2297138408016 -->
<g id="edge3" class="edge">
<title>2297138408016+&#45;&gt;2297138408016</title>
<path fill="none" stroke="black" d="M554.74,-73.5C562.5,-73.5 571.48,-73.5 580.97,-73.5"/>
<polygon fill="black" stroke="black" points="580.79,-77 590.79,-73.5 580.79,-70 580.79,-77"/>
</g>
<!-- 2297138408144 -->
<g id="node8" class="node">
<title>2297138408144</title>
<polygon fill="none" stroke="black" points="297.5,-165.5 297.5,-201.5 460,-201.5 460,-165.5 297.5,-165.5"/>
<text text-anchor="middle" x="337.75" y="-178.2" font-family="Times New Roman,serif" font-size="14.00">data 0.7770</text>
<polyline fill="none" stroke="black" points="378,-165.75 378,-201.5"/>
<text text-anchor="middle" x="419" y="-178.2" font-family="Times New Roman,serif" font-size="14.00">grad 1.1784</text>
</g>
<!-- 2297138408144&#45;&gt;2297138401296* -->
<g id="edge17" class="edge">
<title>2297138408144&#45;&gt;2297138401296*</title>
<path fill="none" stroke="black" d="M440.69,-165.02C448.75,-162.31 456.86,-159.43 464.5,-156.5 474.43,-152.69 485.06,-148.09 494.65,-143.74"/>
<polygon fill="black" stroke="black" points="495.97,-146.98 503.58,-139.61 493.03,-140.63 495.97,-146.98"/>
</g>
<!-- 2297670941904 -->
<g id="node9" class="node">
<title>2297670941904</title>
<polygon fill="none" stroke="black" points="295.25,-55.5 295.25,-91.5 462.25,-91.5 462.25,-55.5 295.25,-55.5"/>
<text text-anchor="middle" x="335.5" y="-68.2" font-family="Times New Roman,serif" font-size="14.00">data 0.2476</text>
<polyline fill="none" stroke="black" points="375.75,-55.75 375.75,-91.5"/>
<text text-anchor="middle" x="419" y="-68.2" font-family="Times New Roman,serif" font-size="14.00">grad &#45;1.2405</text>
</g>
<!-- 2297670941904&#45;&gt;2297138408016+ -->
<g id="edge9" class="edge">
<title>2297670941904&#45;&gt;2297138408016+</title>
<path fill="none" stroke="black" d="M462.56,-73.5C471.73,-73.5 480.71,-73.5 488.89,-73.5"/>
<polygon fill="black" stroke="black" points="488.74,-77 498.74,-73.5 488.74,-70 488.74,-77"/>
</g>
<!-- 2297670941904*&#45;&gt;2297670941904 -->
<g id="edge4" class="edge">
<title>2297670941904*&#45;&gt;2297670941904</title>
<path fill="none" stroke="black" d="M257.24,-73.5C265,-73.5 273.98,-73.5 283.47,-73.5"/>
<polygon fill="black" stroke="black" points="283.29,-77 293.29,-73.5 283.29,-70 283.29,-77"/>
</g>
<!-- 2297138412496 -->
<g id="node11" class="node">
<title>2297138412496</title>
<polygon fill="none" stroke="black" points="595,-220.5 595,-256.5 757.5,-256.5 757.5,-220.5 595,-220.5"/>
<text text-anchor="middle" x="635.25" y="-233.2" font-family="Times New Roman,serif" font-size="14.00">data 1.0000</text>
<polyline fill="none" stroke="black" points="675.5,-220.75 675.5,-256.5"/>
<text text-anchor="middle" x="716.5" y="-233.2" font-family="Times New Roman,serif" font-size="14.00">grad 1.2405</text>
</g>
<!-- 2297138406160* -->
<g id="node18" class="node">
<title>2297138406160*</title>
<ellipse fill="none" stroke="black" cx="825" cy="-183.5" rx="27" ry="18"/>
<text text-anchor="middle" x="825" y="-178.07" font-family="Times New Roman,serif" font-size="14.00">*</text>
</g>
<!-- 2297138412496&#45;&gt;2297138406160* -->
<g id="edge8" class="edge">
<title>2297138412496&#45;&gt;2297138406160*</title>
<path fill="none" stroke="black" d="M738.19,-220.02C746.25,-217.31 754.36,-214.43 762,-211.5 771.93,-207.69 782.56,-203.09 792.15,-198.74"/>
<polygon fill="black" stroke="black" points="793.47,-201.98 801.08,-194.61 790.53,-195.63 793.47,-201.98"/>
</g>
<!-- 2297138404112 -->
<g id="node12" class="node">
<title>2297138404112</title>
<polygon fill="none" stroke="black" points="1483,-137.5 1483,-173.5 1645.5,-173.5 1645.5,-137.5 1483,-137.5"/>
<text text-anchor="middle" x="1523.25" y="-150.2" font-family="Times New Roman,serif" font-size="14.00">data 0.3847</text>
<polyline fill="none" stroke="black" points="1563.5,-137.75 1563.5,-173.5"/>
<text text-anchor="middle" x="1604.5" y="-150.2" font-family="Times New Roman,serif" font-size="14.00">grad 1.0000</text>
</g>
<!-- 2297138404112**2 -->
<g id="node13" class="node">
<title>2297138404112**2</title>
<ellipse fill="none" stroke="black" cx="1420" cy="-155.5" rx="27" ry="18"/>
<text text-anchor="middle" x="1420" y="-150.07" font-family="Times New Roman,serif" font-size="14.00">**2</text>
</g>
<!-- 2297138404112**2&#45;&gt;2297138404112 -->
<g id="edge5" class="edge">
<title>2297138404112**2&#45;&gt;2297138404112</title>
<path fill="none" stroke="black" d="M1447.42,-155.5C1454.52,-155.5 1462.61,-155.5 1471.15,-155.5"/>
<polygon fill="black" stroke="black" points="1471.06,-159 1481.06,-155.5 1471.06,-152 1471.06,-159"/>
</g>
<!-- 2297138413328 -->
<g id="node14" class="node">
<title>2297138413328</title>
<polygon fill="none" stroke="black" points="1185.5,-137.5 1185.5,-173.5 1357,-173.5 1357,-137.5 1185.5,-137.5"/>
<text text-anchor="middle" x="1228" y="-150.2" font-family="Times New Roman,serif" font-size="14.00">data &#45;0.6202</text>
<polyline fill="none" stroke="black" points="1270.5,-137.75 1270.5,-173.5"/>
<text text-anchor="middle" x="1313.75" y="-150.2" font-family="Times New Roman,serif" font-size="14.00">grad &#45;1.2405</text>
</g>
<!-- 2297138413328&#45;&gt;2297138404112**2 -->
<g id="edge10" class="edge">
<title>2297138413328&#45;&gt;2297138404112**2</title>
<path fill="none" stroke="black" d="M1357.19,-155.5C1365.49,-155.5 1373.59,-155.5 1381.05,-155.5"/>
<polygon fill="black" stroke="black" points="1381.03,-159 1391.03,-155.5 1381.03,-152 1381.03,-159"/>
</g>
<!-- 2297138413328+&#45;&gt;2297138413328 -->
<g id="edge6" class="edge">
<title>2297138413328+&#45;&gt;2297138413328</title>
<path fill="none" stroke="black" d="M1149.74,-155.5C1156.92,-155.5 1165.16,-155.5 1173.87,-155.5"/>
<polygon fill="black" stroke="black" points="1173.62,-159 1183.62,-155.5 1173.62,-152 1173.62,-159"/>
</g>
<!-- 2297676177168 -->
<g id="node16" class="node">
<title>2297676177168</title>
<polygon fill="none" stroke="black" points="295.25,-0.5 295.25,-36.5 462.25,-36.5 462.25,-0.5 295.25,-0.5"/>
<text text-anchor="middle" x="335.5" y="-13.2" font-family="Times New Roman,serif" font-size="14.00">data 0.0000</text>
<polyline fill="none" stroke="black" points="375.75,-0.75 375.75,-36.5"/>
<text text-anchor="middle" x="419" y="-13.2" font-family="Times New Roman,serif" font-size="14.00">grad &#45;1.2405</text>
</g>
<!-- 2297676177168&#45;&gt;2297138408016+ -->
<g id="edge12" class="edge">
<title>2297676177168&#45;&gt;2297138408016+</title>
<path fill="none" stroke="black" d="M440.69,-36.98C448.75,-39.69 456.86,-42.57 464.5,-45.5 474.43,-49.31 485.06,-53.91 494.65,-58.26"/>
<polygon fill="black" stroke="black" points="493.03,-61.37 503.58,-62.39 495.97,-55.02 493.03,-61.37"/>
</g>
<!-- 2297138406160 -->
<g id="node17" class="node">
<title>2297138406160</title>
<polygon fill="none" stroke="black" points="888,-165.5 888,-201.5 1059.5,-201.5 1059.5,-165.5 888,-165.5"/>
<text text-anchor="middle" x="930.5" y="-178.2" font-family="Times New Roman,serif" font-size="14.00">data &#45;1.0000</text>
<polyline fill="none" stroke="black" points="973,-165.75 973,-201.5"/>
<text text-anchor="middle" x="1016.25" y="-178.2" font-family="Times New Roman,serif" font-size="14.00">grad &#45;1.2405</text>
</g>
<!-- 2297138406160&#45;&gt;2297138413328+ -->
<g id="edge19" class="edge">
<title>2297138406160&#45;&gt;2297138413328+</title>
<path fill="none" stroke="black" d="M1059.69,-167.29C1068.53,-165.61 1077.14,-163.96 1084.99,-162.47"/>
<polygon fill="black" stroke="black" points="1085.59,-165.91 1094.76,-160.6 1084.28,-159.04 1085.59,-165.91"/>
</g>
<!-- 2297138406160*&#45;&gt;2297138406160 -->
<g id="edge7" class="edge">
<title>2297138406160*&#45;&gt;2297138406160</title>
<path fill="none" stroke="black" d="M852.24,-183.5C859.42,-183.5 867.66,-183.5 876.37,-183.5"/>
<polygon fill="black" stroke="black" points="876.12,-187 886.12,-183.5 876.12,-180 876.12,-187"/>
</g>
<!-- 2297676181840 -->
<g id="node19" class="node">
<title>2297676181840</title>
<polygon fill="none" stroke="black" points="293,-110.5 293,-146.5 464.5,-146.5 464.5,-110.5 293,-110.5"/>
<text text-anchor="middle" x="335.5" y="-123.2" font-family="Times New Roman,serif" font-size="14.00">data &#45;0.9500</text>
<polyline fill="none" stroke="black" points="378,-110.75 378,-146.5"/>
<text text-anchor="middle" x="421.25" y="-123.2" font-family="Times New Roman,serif" font-size="14.00">grad &#45;0.9638</text>
</g>
<!-- 2297676181840&#45;&gt;2297138401296* -->
<g id="edge20" class="edge">
<title>2297676181840&#45;&gt;2297138401296*</title>
<path fill="none" stroke="black" d="M464.69,-128.5C472.99,-128.5 481.09,-128.5 488.55,-128.5"/>
<polygon fill="black" stroke="black" points="488.53,-132 498.53,-128.5 488.53,-125 488.53,-132"/>
</g>
<!-- 2297671902992 -->
<g id="node20" class="node">
<title>2297671902992</title>
<polygon fill="none" stroke="black" points="590.5,-165.5 590.5,-201.5 762,-201.5 762,-165.5 590.5,-165.5"/>
<text text-anchor="middle" x="633" y="-178.2" font-family="Times New Roman,serif" font-size="14.00">data &#45;1.0000</text>
<polyline fill="none" stroke="black" points="675.5,-165.75 675.5,-201.5"/>
<text text-anchor="middle" x="718.75" y="-178.2" font-family="Times New Roman,serif" font-size="14.00">grad &#45;1.2405</text>
</g>
<!-- 2297671902992&#45;&gt;2297138406160* -->
<g id="edge16" class="edge">
<title>2297671902992&#45;&gt;2297138406160*</title>
<path fill="none" stroke="black" d="M762.19,-183.5C770.49,-183.5 778.59,-183.5 786.05,-183.5"/>
<polygon fill="black" stroke="black" points="786.03,-187 796.03,-183.5 786.03,-180 786.03,-187"/>
</g>
<!-- 2297673274320 -->
<g id="node21" class="node">
<title>2297673274320</title>
<polygon fill="none" stroke="black" points="0,-28.5 0,-64.5 167,-64.5 167,-28.5 0,-28.5"/>
<text text-anchor="middle" x="40.25" y="-41.2" font-family="Times New Roman,serif" font-size="14.00">data 0.2789</text>
<polyline fill="none" stroke="black" points="80.5,-28.75 80.5,-64.5"/>
<text text-anchor="middle" x="123.75" y="-41.2" font-family="Times New Roman,serif" font-size="14.00">grad &#45;1.1015</text>
</g>
<!-- 2297673274320&#45;&gt;2297670941904* -->
<g id="edge14" class="edge">
<title>2297673274320&#45;&gt;2297670941904*</title>
<path fill="none" stroke="black" d="M167.3,-61.97C176.01,-63.6 184.51,-65.19 192.28,-66.64"/>
<polygon fill="black" stroke="black" points="191.49,-70.05 201.96,-68.45 192.77,-63.17 191.49,-70.05"/>
</g>
</g>
</svg>
